<mxfile host="app.diagrams.net" modified="2023-09-19T15:55:27.397Z" agent="Mozilla/5.0 (Macintosh; Intel Mac OS X 10_15_7) AppleWebKit/537.36 (KHTML, like Gecko) Chrome/116.0.0.0 Safari/537.36" version="21.7.5" etag="yeHsedEt1RYXenNVdKlc" type="github">
  <diagram name="Page-1" id="aqhBnE2ESW9GpKPNXIT0">
    <mxGraphModel>
      <root>
        <mxCell id="0" />
        <mxCell id="1" parent="0" />
      </root>
    </mxGraphModel>
  </diagram>
</mxfile>
